<?xml version="1.0" standalone="no"?><!DOCTYPE svg PUBLIC "-//W3C//DTD SVG 1.1//EN" "http://www.w3.org/Graphics/SVG/1.1/DTD/svg11.dtd"><svg t="1658198402861" class="icon" viewBox="0 0 1024 1024" version="1.1" xmlns="http://www.w3.org/2000/svg" p-id="1261" xmlns:xlink="http://www.w3.org/1999/xlink" width="200" height="200"><defs><style type="text/css">@font-face { font-family: feedback-iconfont; src: url("//at.alicdn.com/t/font_1031158_u69w8yhxdu.woff2?t=1630033759944") format("woff2"), url("//at.alicdn.com/t/font_1031158_u69w8yhxdu.woff?t=1630033759944") format("woff"), url("//at.alicdn.com/t/font_1031158_u69w8yhxdu.ttf?t=1630033759944") format("truetype"); }
</style></defs><path d="M711.111111 28.444444c17.066667 0 28.444444 5.688889 39.82222201 17.066667 22.755556 22.755556 17.066667 56.888889-5.68888901 79.644445l-364.088888 329.955555c-11.377778 11.377778-17.066667 22.755556-17.066667 34.133333 0 11.377778 5.688889 22.755556 17.066667 34.133334L750.933333 836.266667c22.755556 22.755556 28.444444 56.88888901 5.688889 79.644444-22.755556 22.755556-56.88888901 28.444444-79.64444401 5.688889l-364.08888899-312.888889c-34.133333-28.444444-56.888889-73.955556-56.888889-119.466667s17.066667-85.333333 51.2-119.466666l364.088889-329.955556c11.377778-5.688889 28.444444-11.377778 39.822222-11.377778z" p-id="1262"></path></svg>