<?xml version="1.0" standalone="no"?><!DOCTYPE svg PUBLIC "-//W3C//DTD SVG 1.1//EN" "http://www.w3.org/Graphics/SVG/1.1/DTD/svg11.dtd"><svg t="1657266179348" class="icon" viewBox="0 0 1024 1024" version="1.1" xmlns="http://www.w3.org/2000/svg" p-id="1106" xmlns:xlink="http://www.w3.org/1999/xlink" width="200" height="200"><defs><style type="text/css">@font-face { font-family: feedback-iconfont; src: url("//at.alicdn.com/t/font_1031158_u69w8yhxdu.woff2?t=1630033759944") format("woff2"), url("//at.alicdn.com/t/font_1031158_u69w8yhxdu.woff?t=1630033759944") format("woff"), url("//at.alicdn.com/t/font_1031158_u69w8yhxdu.ttf?t=1630033759944") format("truetype"); }
</style></defs><path d="M197.02065103 753.68151909H193.39526343a43.94409208 43.94409208 0 1 1 0-87.88818338v-109.8602298a43.94409208 43.94409208 0 1 1 0-87.88818414v-109.86022902a43.94409208 43.94409208 0 1 1 0-87.88818416h3.62538759c3.77919225-28.89324003 10.48066581-46.36101714 19.86272988-63.87273734a159.73677374 159.73677374 0 0 1 66.44346706-66.44346705C311.95642332 124.6218444 340.36627864 116.4921875 418.74056639 116.4921875h230.44281776c78.37428775 0 106.78414307 8.15162922 135.41371919 23.48811669a159.73677374 159.73677374 0 0 1 66.44346628 66.44346706C866.3990302 235.05334739 874.52868709 263.46320271 874.52868709 341.83749044v340.3030468c0 78.37428775-8.15162922 106.78414307-23.48811747 135.41371919a159.73677374 159.73677374 0 0 1-66.44346628 66.44346706C755.96752722 899.35618328 727.55767189 907.48584019 649.18338415 907.48584019H418.74056639c-78.37428775 0-106.78414307-8.15162922-135.41371843-23.4881167a159.73677374 159.73677374 0 0 1-66.44346705-66.44346706c-9.38206329-17.53369251-16.08353763-34.97949731-19.86272988-63.87273734z m88.02001649 0c1.93354037 8.39332158 4.61412933 14.65535428 7.97585225 20.96133161 7.66824374 14.32577422 18.89595968 25.55348941 33.22173392 33.22173392 14.32577422 7.6462722 28.54168765 11.7330722 67.71784498 11.7330722h280.01175319c39.17615811 0 53.39207153-4.08680077 67.71784575-11.7330722a79.86838726 79.86838726 0 0 0 33.22173314-33.22173392c7.6462722-14.32577422 11.7330722-28.54168765 11.73307297-67.71784498V317.05302274c0-39.17615811-4.08680077-53.39207153-11.73307297-67.71784576a79.86838726 79.86838726 0 0 0-33.22173314-33.22173314C727.35992339 208.46717164 713.14400997 204.38037088 673.96785186 204.38037088H393.95609867c-39.17615811 0-53.39207153 4.08680077-67.71784498 11.73307296a79.86838726 79.86838726 0 0 0-33.22173392 33.22173313A80.94501746 80.94501746 0 0 0 285.04066752 270.29650859H303.25549322a43.94409208 43.94409208 0 1 1 0 87.88818415H281.28344757v109.86022903h21.97204565a43.94409208 43.94409208 0 1 1 0 87.88818414H281.28344757v109.8602298h21.97204565a43.94409208 43.94409208 0 1 1 0 87.88818338h-18.23679801z m350.34427174-285.54870884a43.94409208 43.94409208 0 0 1-0.57127319 87.88818337h-32.98004079v21.97204643h32.98004079a43.94409208 43.94409208 0 1 1 0 87.88818337h-32.98004079a43.94409208 43.94409208 0 1 1-87.88818338 0H481.00934496a43.94409208 43.94409208 0 1 1 0-87.88818337h32.93609694v-21.97204643H481.00934496a43.94409208 43.94409208 0 0 1-0.6152178-87.88818337l-59.32452341-84.74618125a43.94409208 43.94409208 0 1 1 71.98042193-50.40387328l64.81753599 92.56822963 64.83950751-92.56822963a43.94409208 43.94409208 0 1 1 72.00239425 50.40387328l-59.32452418 84.74618125z" p-id="1107"></path></svg>