<?xml version="1.0" standalone="no"?><!DOCTYPE svg PUBLIC "-//W3C//DTD SVG 1.1//EN" "http://www.w3.org/Graphics/SVG/1.1/DTD/svg11.dtd"><svg t="1657266174440" class="icon" viewBox="0 0 1024 1024" version="1.1" xmlns="http://www.w3.org/2000/svg" p-id="961" xmlns:xlink="http://www.w3.org/1999/xlink" width="200" height="200"><defs><style type="text/css">@font-face { font-family: feedback-iconfont; src: url("//at.alicdn.com/t/font_1031158_u69w8yhxdu.woff2?t=1630033759944") format("woff2"), url("//at.alicdn.com/t/font_1031158_u69w8yhxdu.woff?t=1630033759944") format("woff"), url("//at.alicdn.com/t/font_1031158_u69w8yhxdu.ttf?t=1630033759944") format("truetype"); }
</style></defs><path d="M882.97089066 141.21142578l-152.02331542 16.68548584L781.00403276 207.95336914 616.00311722 409.66235352 444.69879595 251.33563232c-11.4944458-10.75286865-29.66308594-10.75286865-41.52832032-0.37078857L151.40503374 478.25823974C138.79822221 489.75268555 137.68585648 509.40447998 149.1803023 522.01129151c5.93261719 6.67419434 14.4607544 10.01129151 22.98889159 10.01129149 7.41577148 0 14.83154297-2.59552002 20.76416016-7.78656005l230.63049317-208.38317871 174.64141845 161.29302978c6.30340576 5.93261719 14.83154297 8.52813721 22.98889161 8.15734864 8.52813721-0.74157715 16.31469727-4.82025146 21.87652588-11.12365723l181.68640136-222.10235595 41.52832031 41.52832031L882.97089066 141.21142578z m1e-8 0M237.79877153 882.78857422H163.64105668c-12.23602295 0-22.24731445-10.01129151-22.24731445-22.24731445v-252.13623047c0-12.23602295 10.01129151-22.24731445 22.24731445-22.24731446h74.15771485c12.23602295 0 22.24731445 10.01129151 22.24731445 22.24731446v252.13623047c0 12.23602295-10.01129151 22.24731445-22.24731445 22.24731445z" p-id="962"></path><path d="M445.44037309 882.78857422H371.28265825c-12.23602295 0-22.24731445-10.01129151-22.24731446-22.24731445V460.08959961c0-12.23602295 10.01129151-22.24731445 22.24731446-22.24731445h74.15771484c12.23602295 0 22.24731445 10.01129151 22.24731445 22.24731445v400.45166016c0 12.23602295-10.01129151 22.24731445-22.24731445 22.24731445zM653.08197465 882.78857422h-74.15771484c-12.23602295 0-22.24731445-10.01129151-22.24731445-22.24731445v-289.2150879c0-12.23602295 10.01129151-22.24731445 22.24731445-22.24731445h74.15771484c12.23602295 0 22.24731445 10.01129151 22.24731446 22.24731446v289.21508789c0 12.23602295-10.01129151 22.24731445-22.24731446 22.24731445zM860.72357621 882.78857422h-74.15771484c-12.23602295 0-22.24731445-10.01129151-22.24731445-22.24731445V385.93188477c0-12.23602295 10.01129151-22.24731445 22.24731445-22.24731446h74.15771485c12.23602295 0 22.24731445 10.01129151 22.24731445 22.24731446v474.609375c0 12.23602295-10.01129151 22.24731445-22.24731445 22.24731445z" p-id="963"></path></svg>